<svg width="200" height="201" viewBox="0 0 200 201" fill="none" xmlns="http://www.w3.org/2000/svg">
<circle cx="100" cy="100.5" r="100" fill="url(#paint0_radial_2109_10745)" fill-opacity="0.12"/>
<g clip-path="url(#clip0_2109_10745)">
<path d="M141 107.577C141 114.041 136.159 119.096 130.573 118.464L94.797 114.415C89.9345 113.864 86.2278 109.155 86.2278 103.528L86.2278 83.0014C86.2278 77.3261 89.9962 72.5933 94.9054 72.1031L130.681 68.5305C136.23 67.9764 141 73.0144 141 79.4288L141 107.577Z" fill="white"/>
<g filter="url(#filter0_b_2109_10745)">
<path d="M59 93.4232C59 86.9588 63.8411 81.9042 69.4269 82.5364L105.203 86.5854C110.065 87.1357 113.772 91.8449 113.772 97.4722V117.999C113.772 123.674 110.004 128.407 105.095 128.897L69.3185 132.47C63.77 133.024 59 127.986 59 121.571V93.4232Z" fill="url(#paint1_linear_2109_10745)" fill-opacity="0.3"/>
</g>
<g filter="url(#filter1_b_2109_10745)">
<path fill-rule="evenodd" clip-rule="evenodd" d="M105.188 86.7668L69.4115 82.7178C63.9187 82.0962 59.1583 87.0665 59.1583 93.4232V121.571C59.1583 127.879 63.8488 132.833 69.3049 132.288L105.081 128.715C109.908 128.233 113.614 123.579 113.614 117.999V97.4722C113.614 91.9387 109.969 87.308 105.188 86.7668ZM69.4269 82.5364C63.8411 81.9042 59 86.9588 59 93.4232V121.571C59 127.986 63.77 133.024 69.3185 132.47L105.095 128.897C110.004 128.407 113.772 123.674 113.772 117.999V97.4722C113.772 91.8449 110.065 87.1357 105.203 86.5854L69.4269 82.5364Z" fill="url(#paint2_linear_2109_10745)"/>
<path fill-rule="evenodd" clip-rule="evenodd" d="M105.188 86.7668L69.4115 82.7178C63.9187 82.0962 59.1583 87.0665 59.1583 93.4232V121.571C59.1583 127.879 63.8488 132.833 69.3049 132.288L105.081 128.715C109.908 128.233 113.614 123.579 113.614 117.999V97.4722C113.614 91.9387 109.969 87.308 105.188 86.7668ZM69.4269 82.5364C63.8411 81.9042 59 86.9588 59 93.4232V121.571C59 127.986 63.77 133.024 69.3185 132.47L105.095 128.897C110.004 128.407 113.772 123.674 113.772 117.999V97.4722C113.772 91.8449 110.065 87.1357 105.203 86.5854L69.4269 82.5364Z" fill="url(#paint3_radial_2109_10745)"/>
</g>
</g>
<defs>
<filter id="filter0_b_2109_10745" x="29" y="52.4829" width="114.772" height="110.028" filterUnits="userSpaceOnUse" color-interpolation-filters="sRGB">
<feFlood flood-opacity="0" result="BackgroundImageFix"/>
<feGaussianBlur in="BackgroundImageFix" stdDeviation="15"/>
<feComposite in2="SourceAlpha" operator="in" result="effect1_backgroundBlur_2109_10745"/>
<feBlend mode="normal" in="SourceGraphic" in2="effect1_backgroundBlur_2109_10745" result="shape"/>
</filter>
<filter id="filter1_b_2109_10745" x="29" y="52.4829" width="114.772" height="110.028" filterUnits="userSpaceOnUse" color-interpolation-filters="sRGB">
<feFlood flood-opacity="0" result="BackgroundImageFix"/>
<feGaussianBlur in="BackgroundImageFix" stdDeviation="15"/>
<feComposite in2="SourceAlpha" operator="in" result="effect1_backgroundBlur_2109_10745"/>
<feBlend mode="normal" in="SourceGraphic" in2="effect1_backgroundBlur_2109_10745" result="shape"/>
</filter>
<radialGradient id="paint0_radial_2109_10745" cx="0" cy="0" r="1" gradientUnits="userSpaceOnUse" gradientTransform="translate(100 100.5) rotate(90) scale(100)">
<stop stop-color="#D9D9D9"/>
<stop offset="1" stop-color="#D9D9D9" stop-opacity="0"/>
</radialGradient>
<linearGradient id="paint1_linear_2109_10745" x1="64.8612" y1="87.0986" x2="121.598" y2="119.262" gradientUnits="userSpaceOnUse">
<stop stop-color="white" stop-opacity="0.9"/>
<stop offset="0.447036" stop-color="white" stop-opacity="0.955296"/>
<stop offset="1" stop-color="white" stop-opacity="0.9"/>
</linearGradient>
<linearGradient id="paint2_linear_2109_10745" x1="66.8823" y1="80.6962" x2="115.754" y2="111.936" gradientUnits="userSpaceOnUse">
<stop offset="0.188941" stop-color="#E7F0FF" stop-opacity="0.523483"/>
<stop offset="0.526042" stop-color="#88A4FF"/>
<stop offset="1" stop-color="#B4D2FF" stop-opacity="0.1"/>
</linearGradient>
<radialGradient id="paint3_radial_2109_10745" cx="0" cy="0" r="1" gradientUnits="userSpaceOnUse" gradientTransform="translate(67.1855 130.873) rotate(-48.4177) scale(40.8063 67.7173)">
<stop stop-color="white"/>
<stop offset="1" stop-color="white" stop-opacity="0"/>
</radialGradient>
<clipPath id="clip0_2109_10745">
<rect width="80" height="80" fill="white" transform="translate(60 60.5)"/>
</clipPath>
</defs>
</svg>
