<svg width="200" height="201" viewBox="0 0 200 201" fill="none" xmlns="http://www.w3.org/2000/svg">
<circle cx="100" cy="100.5" r="100" fill="url(#paint0_radial_2109_10776)" fill-opacity="0.12"/>
<path d="M60 72.8478C60 67.5816 64.2844 63.3125 69.5694 63.3125H101.34C106.625 63.3125 110.909 67.5816 110.909 72.8478V117.091C110.909 122.358 106.625 126.627 101.34 126.627H69.5694C64.2844 126.627 60 122.358 60 117.091V72.8478Z" fill="white"/>
<g filter="url(#filter0_b_2109_10776)">
<path fill-rule="evenodd" clip-rule="evenodd" d="M130.416 123.02C138.582 112.381 137.783 97.1007 128.018 87.3706C117.382 76.773 100.139 76.773 89.503 87.3706C78.8675 97.9682 78.8675 115.15 89.503 125.748C99.268 135.478 114.603 136.275 125.28 128.137L133.511 136.339C134.259 137.084 135.471 137.084 136.218 136.339L138.647 133.919C139.394 133.174 139.394 131.967 138.647 131.222L130.416 123.02Z" fill="url(#paint1_linear_2109_10776)" fill-opacity="0.3"/>
</g>
<g filter="url(#filter1_b_2109_10776)">
<path fill-rule="evenodd" clip-rule="evenodd" d="M130.162 123.037L130.264 122.904C138.372 112.341 137.579 97.1671 127.882 87.5054C117.322 76.9823 100.199 76.9823 89.6383 87.5054C79.0776 98.0285 79.0776 115.09 89.6383 125.613C99.3346 135.275 114.562 136.066 125.164 127.986L125.297 127.884L133.647 136.204C134.319 136.874 135.41 136.874 136.083 136.204L138.511 133.784C139.184 133.114 139.184 132.027 138.511 131.357L130.162 123.037ZM125.28 128.137C114.603 136.275 99.268 135.478 89.503 125.748C78.8675 115.15 78.8675 97.9682 89.503 87.3706C100.139 76.773 117.382 76.773 128.018 87.3706C137.783 97.1007 138.582 112.381 130.416 123.02L138.647 131.222C139.394 131.967 139.394 133.174 138.647 133.919L136.218 136.339C135.471 137.084 134.259 137.084 133.511 136.339L125.28 128.137Z" fill="url(#paint2_linear_2109_10776)"/>
<path fill-rule="evenodd" clip-rule="evenodd" d="M130.162 123.037L130.264 122.904C138.372 112.341 137.579 97.1671 127.882 87.5054C117.322 76.9823 100.199 76.9823 89.6383 87.5054C79.0776 98.0285 79.0776 115.09 89.6383 125.613C99.3346 135.275 114.562 136.066 125.164 127.986L125.297 127.884L133.647 136.204C134.319 136.874 135.41 136.874 136.083 136.204L138.511 133.784C139.184 133.114 139.184 132.027 138.511 131.357L130.162 123.037ZM125.28 128.137C114.603 136.275 99.268 135.478 89.503 125.748C78.8675 115.15 78.8675 97.9682 89.503 87.3706C100.139 76.773 117.382 76.773 128.018 87.3706C137.783 97.1007 138.582 112.381 130.416 123.02L138.647 131.222C139.394 131.967 139.394 133.174 138.647 133.919L136.218 136.339C135.471 137.084 134.259 137.084 133.511 136.339L125.28 128.137Z" fill="url(#paint3_radial_2109_10776)"/>
</g>
<defs>
<filter id="filter0_b_2109_10776" x="51.5264" y="49.4224" width="117.681" height="117.475" filterUnits="userSpaceOnUse" color-interpolation-filters="sRGB">
<feFlood flood-opacity="0" result="BackgroundImageFix"/>
<feGaussianBlur in="BackgroundImageFix" stdDeviation="15"/>
<feComposite in2="SourceAlpha" operator="in" result="effect1_backgroundBlur_2109_10776"/>
<feBlend mode="normal" in="SourceGraphic" in2="effect1_backgroundBlur_2109_10776" result="shape"/>
</filter>
<filter id="filter1_b_2109_10776" x="51.5264" y="49.4224" width="117.681" height="117.475" filterUnits="userSpaceOnUse" color-interpolation-filters="sRGB">
<feFlood flood-opacity="0" result="BackgroundImageFix"/>
<feGaussianBlur in="BackgroundImageFix" stdDeviation="15"/>
<feComposite in2="SourceAlpha" operator="in" result="effect1_backgroundBlur_2109_10776"/>
<feBlend mode="normal" in="SourceGraphic" in2="effect1_backgroundBlur_2109_10776" result="shape"/>
</filter>
<radialGradient id="paint0_radial_2109_10776" cx="0" cy="0" r="1" gradientUnits="userSpaceOnUse" gradientTransform="translate(100 100.5) rotate(90) scale(100)">
<stop stop-color="#D9D9D9"/>
<stop offset="1" stop-color="#D9D9D9" stop-opacity="0"/>
</radialGradient>
<linearGradient id="paint1_linear_2109_10776" x1="87.6989" y1="84.7251" x2="149.864" y2="117.028" gradientUnits="userSpaceOnUse">
<stop stop-color="#C3C3C3" stop-opacity="0.9"/>
<stop offset="0.447036" stop-color="white" stop-opacity="0.955296"/>
<stop offset="1" stop-color="white" stop-opacity="0.9"/>
</linearGradient>
<linearGradient id="paint2_linear_2109_10776" x1="89.8273" y1="77.3697" x2="143.795" y2="108.992" gradientUnits="userSpaceOnUse">
<stop offset="0.188941" stop-color="white" stop-opacity="0.523483"/>
<stop offset="0.526042" stop-color="white"/>
<stop offset="1" stop-color="white" stop-opacity="0.1"/>
</linearGradient>
<radialGradient id="paint3_radial_2109_10776" cx="0" cy="0" r="1" gradientUnits="userSpaceOnUse" gradientTransform="translate(90.1466 135.016) rotate(-50.8772) scale(45.201 73.9631)">
<stop stop-color="white"/>
<stop offset="1" stop-color="white" stop-opacity="0"/>
</radialGradient>
</defs>
</svg>
