<svg width="200" height="201" viewBox="0 0 200 201" fill="none" xmlns="http://www.w3.org/2000/svg">
<circle cx="100" cy="100.5" r="100" fill="url(#paint0_radial_2109_10757)" fill-opacity="0.12"/>
<path d="M70.1523 72.843C70.1523 69.616 72.7905 67 76.0449 67H123.628C126.882 67 129.52 69.616 129.52 72.843V98.8852C129.52 102.112 126.882 104.728 123.628 104.728H76.0449C72.7905 104.728 70.1523 102.112 70.1523 98.8851V72.843Z" fill="white"/>
<g filter="url(#filter0_b_2109_10757)">
<path d="M141 91.3109C141 85.9326 136.603 81.5725 131.179 81.5725H105.172C102.991 81.5725 100.981 80.4025 99.918 78.5143C98.8548 76.6261 96.8446 75.4561 94.6637 75.4561H68.8209C63.397 75.4561 59 79.8161 59 85.1944V124.261C59 129.64 63.397 134 68.8209 134H131.179C136.603 134 141 129.64 141 124.261V91.3109Z" fill="url(#paint1_linear_2109_10757)" fill-opacity="0.3"/>
</g>
<g filter="url(#filter1_b_2109_10757)">
<path fill-rule="evenodd" clip-rule="evenodd" d="M131.179 81.7673H105.172C102.92 81.7673 100.844 80.5591 99.7465 78.6092C98.718 76.7827 96.7734 75.6508 94.6637 75.6508H68.8209C63.5055 75.6508 59.1964 79.9237 59.1964 85.1944V124.261C59.1964 129.532 63.5055 133.805 68.8209 133.805H131.179C136.495 133.805 140.804 129.532 140.804 124.261V91.3109C140.804 86.0401 136.495 81.7673 131.179 81.7673ZM131.179 81.5725C136.603 81.5725 141 85.9326 141 91.3109V124.261C141 129.64 136.603 134 131.179 134H68.8209C63.397 134 59 129.64 59 124.261V85.1944C59 79.8161 63.397 75.4561 68.8209 75.4561H94.6637C96.8446 75.4561 98.8548 76.6261 99.918 78.5143C100.981 80.4025 102.991 81.5725 105.172 81.5725H131.179Z" fill="url(#paint2_linear_2109_10757)"/>
<path fill-rule="evenodd" clip-rule="evenodd" d="M131.179 81.7673H105.172C102.92 81.7673 100.844 80.5591 99.7465 78.6092C98.718 76.7827 96.7734 75.6508 94.6637 75.6508H68.8209C63.5055 75.6508 59.1964 79.9237 59.1964 85.1944V124.261C59.1964 129.532 63.5055 133.805 68.8209 133.805H131.179C136.495 133.805 140.804 129.532 140.804 124.261V91.3109C140.804 86.0401 136.495 81.7673 131.179 81.7673ZM131.179 81.5725C136.603 81.5725 141 85.9326 141 91.3109V124.261C141 129.64 136.603 134 131.179 134H68.8209C63.397 134 59 129.64 59 124.261V85.1944C59 79.8161 63.397 75.4561 68.8209 75.4561H94.6637C96.8446 75.4561 98.8548 76.6261 99.918 78.5143C100.981 80.4025 102.991 81.5725 105.172 81.5725H131.179Z" fill="url(#paint3_radial_2109_10757)"/>
</g>
<defs>
<filter id="filter0_b_2109_10757" x="29" y="45.4561" width="142" height="118.544" filterUnits="userSpaceOnUse" color-interpolation-filters="sRGB">
<feFlood flood-opacity="0" result="BackgroundImageFix"/>
<feGaussianBlur in="BackgroundImageFix" stdDeviation="15"/>
<feComposite in2="SourceAlpha" operator="in" result="effect1_backgroundBlur_2109_10757"/>
<feBlend mode="normal" in="SourceGraphic" in2="effect1_backgroundBlur_2109_10757" result="shape"/>
</filter>
<filter id="filter1_b_2109_10757" x="29" y="45.4561" width="142" height="118.544" filterUnits="userSpaceOnUse" color-interpolation-filters="sRGB">
<feFlood flood-opacity="0" result="BackgroundImageFix"/>
<feGaussianBlur in="BackgroundImageFix" stdDeviation="15"/>
<feComposite in2="SourceAlpha" operator="in" result="effect1_backgroundBlur_2109_10757"/>
<feBlend mode="normal" in="SourceGraphic" in2="effect1_backgroundBlur_2109_10757" result="shape"/>
</filter>
<radialGradient id="paint0_radial_2109_10757" cx="0" cy="0" r="1" gradientUnits="userSpaceOnUse" gradientTransform="translate(100 100.5) rotate(90) scale(100)">
<stop stop-color="white"/>
<stop offset="1" stop-color="white" stop-opacity="0"/>
</radialGradient>
<linearGradient id="paint1_linear_2109_10757" x1="59" y1="84.5" x2="140.661" y2="133.069" gradientUnits="userSpaceOnUse">
<stop stop-color="white" stop-opacity="0.9"/>
<stop offset="0.447036" stop-color="white" stop-opacity="0.73"/>
<stop offset="1" stop-color="white" stop-opacity="0.87"/>
</linearGradient>
<linearGradient id="paint2_linear_2109_10757" x1="70.8007" y1="73.3652" x2="132.56" y2="123.872" gradientUnits="userSpaceOnUse">
<stop offset="0.188941" stop-color="white" stop-opacity="0.523483"/>
<stop offset="0.526042" stop-color="white"/>
<stop offset="1" stop-color="white" stop-opacity="0.1"/>
</linearGradient>
<radialGradient id="paint3_radial_2109_10757" cx="0" cy="0" r="1" gradientUnits="userSpaceOnUse" gradientTransform="translate(71.2546 132.083) rotate(-42.4255) scale(49.78 82.5364)">
<stop stop-color="white"/>
<stop offset="1" stop-color="white" stop-opacity="0"/>
</radialGradient>
</defs>
</svg>
