<svg width="62" height="56" viewBox="0 0 62 56" fill="none" xmlns="http://www.w3.org/2000/svg">
<g clip-path="url(#clip0_2501_1156)">
<path d="M23.5024 50.0002C27.6416 50.0002 31.0009 46.7148 31.0009 42.6668V35.3335H23.5024C19.3632 35.3335 16.0039 38.6188 16.0039 42.6668C16.0039 46.7148 19.3632 50.0002 23.5024 50.0002Z" fill="#0ACF83"/>
<path d="M16.0039 27.9998C16.0039 23.9518 19.3632 20.6665 23.5024 20.6665H31.0009V35.3332H23.5024C19.3632 35.3332 16.0039 32.0478 16.0039 27.9998Z" fill="#A259FF"/>
<path d="M16.0039 13.3333C16.0039 9.28533 19.3632 6 23.5024 6H31.0009V20.6667H23.5024C19.3632 20.6667 16.0039 17.3813 16.0039 13.3333Z" fill="#F24E1E"/>
<path d="M31 6H38.4985C42.6377 6 45.997 9.28533 45.997 13.3333C45.997 17.3813 42.6377 20.6667 38.4985 20.6667H31V6Z" fill="#FF7262"/>
<path d="M45.997 27.9998C45.997 32.0478 42.6377 35.3332 38.4985 35.3332C34.3593 35.3332 31 32.0478 31 27.9998C31 23.9518 34.3593 20.6665 38.4985 20.6665C42.6377 20.6665 45.997 23.9518 45.997 27.9998Z" fill="#1ABCFE"/>
</g>
<defs>
<clipPath id="clip0_2501_1156">
<rect width="30" height="44" fill="white" transform="translate(16 6)"/>
</clipPath>
</defs>
</svg>
