<svg width="67" height="56" viewBox="0 0 67 56" fill="none" xmlns="http://www.w3.org/2000/svg">
<g clip-path="url(#clip0_2501_1094)">
<path d="M34.1109 22.92C34.1071 23.0338 34.0581 23.1416 33.9742 23.2207C33.8903 23.2999 33.7782 23.3441 33.6615 23.344H29.0314C28.728 23.344 28.4746 23.104 28.4746 22.812C28.4746 21.4944 28.0072 20.8528 27.051 20.8528C26.0948 20.8528 25.4781 21.4256 25.46 22.4264C25.4395 23.5424 26.0866 24.5568 27.9284 26.2992C30.3534 28.5184 31.3252 30.484 31.2784 33.0824C31.2022 37.284 28.2737 40 23.8174 40C21.5417 40 19.8032 39.4064 18.6469 38.2352C17.4734 37.0456 16.9354 35.3 17.0478 33.0472C17.0516 32.9333 17.1008 32.8253 17.1848 32.7462C17.2688 32.667 17.3812 32.6229 17.498 32.6232H22.2872C22.3539 32.6242 22.4195 32.6397 22.4794 32.6685C22.5392 32.6973 22.5918 32.7386 22.6333 32.7896C22.6694 32.8317 22.6959 32.881 22.7109 32.934C22.7259 32.987 22.7291 33.0425 22.7202 33.0968C22.6669 33.9096 22.812 34.5168 23.1401 34.8528C23.35 35.0704 23.6428 35.1808 24.0077 35.1808C24.8925 35.1808 25.4108 34.5712 25.4305 33.5088C25.4469 32.5904 25.1492 31.7856 23.5271 30.1576C21.4319 28.1608 19.5531 26.0976 19.6113 22.8536C19.6457 20.972 20.4117 19.2512 21.7689 18.008C23.204 16.6944 25.1665 16 27.4446 16C29.7269 16.016 31.4564 16.6512 32.5856 17.888C33.655 19.06 34.1692 20.7528 34.1126 22.92H34.1109Z" fill="#00E559"/>
<path d="M48.4621 39.2098L48.4925 16.8634C48.4933 16.8075 48.4827 16.7519 48.4613 16.7C48.4398 16.6481 48.408 16.6009 48.3676 16.5611C48.3271 16.5214 48.279 16.49 48.2259 16.4687C48.1729 16.4473 48.116 16.4366 48.0586 16.437H40.8929C40.6518 16.437 40.546 16.6394 40.4771 16.773L30.1016 39.073V39.077L30.0975 39.0826C29.9827 39.357 30.2008 39.6506 30.5051 39.6506H35.5141C35.7847 39.6506 35.9643 39.5706 36.052 39.4042L37.0468 37.0722C37.169 36.761 37.1919 36.7322 37.5396 36.7322H42.3255C42.6585 36.7322 42.6651 36.7386 42.6601 37.0562L42.5527 39.2242C42.5518 39.2801 42.5624 39.3356 42.5838 39.3875C42.6052 39.4393 42.637 39.4865 42.6773 39.5262C42.7177 39.5659 42.7657 39.5974 42.8187 39.6188C42.8716 39.6401 42.9284 39.651 42.9857 39.6506H48.0463C48.109 39.6514 48.171 39.6387 48.2281 39.6136C48.2852 39.5884 48.336 39.5514 48.3768 39.505C48.4121 39.4648 48.4379 39.4175 48.4527 39.3666C48.4674 39.3156 48.4706 39.2621 48.4621 39.2098ZM39.5972 31.749C39.5594 31.7492 39.5217 31.7479 39.484 31.745C39.4665 31.7436 39.4494 31.7385 39.4341 31.7299C39.4189 31.7214 39.4057 31.7097 39.3955 31.6957C39.3853 31.6817 39.3785 31.6656 39.3753 31.6487C39.3722 31.6318 39.3729 31.6144 39.3774 31.5978C39.3872 31.5658 39.4012 31.5218 39.4217 31.4682L43.0103 22.8058C43.0426 22.7204 43.0798 22.6368 43.1218 22.5554C43.1801 22.4386 43.2506 22.4306 43.2727 22.517C43.2916 22.589 42.8611 31.4114 42.8611 31.4114C42.8274 31.7418 42.8118 31.7554 42.4781 31.7826L39.6005 31.7506H39.5939L39.5964 31.749L39.5972 31.749Z" fill="#00E559"/>
<path d="M58.6699 16.437H54.8656C54.6647 16.437 54.4391 16.541 54.3867 16.7746L49.0923 39.1986C49.0807 39.2491 49.0812 39.3016 49.0938 39.352C49.1063 39.4023 49.1305 39.4492 49.1645 39.489C49.2086 39.5397 49.2635 39.5804 49.3254 39.6083C49.3873 39.6362 49.4547 39.6506 49.5228 39.6506H54.2776C54.5335 39.6506 54.7081 39.5282 54.7557 39.3162L55.333 36.7746C55.374 36.5762 55.3035 36.4226 55.1214 36.3298C55.036 36.2868 54.9507 36.2436 54.8656 36.2002L54.0414 35.7818L53.2213 35.3642L52.904 35.2034C52.8782 35.1908 52.8565 35.1714 52.8416 35.1473C52.8266 35.1232 52.819 35.0955 52.8195 35.0674C52.8206 35.0257 52.8384 34.9861 52.869 34.9571C52.8997 34.9281 52.9408 34.9119 52.9835 34.9122L55.5889 34.9234C56.3679 34.9274 57.1478 34.8738 57.9146 34.7362C63.3106 33.7642 66.8944 29.5482 66.9977 23.8114C67.0862 18.9154 64.2849 16.4346 58.674 16.4346L58.6699 16.437ZM57.375 29.781H57.2733C57.0445 29.781 57.0043 29.757 56.9978 29.749C56.9937 29.7434 58.5001 23.2906 58.5009 23.2818C58.5395 23.0954 58.5379 22.9882 58.4198 22.925C58.2689 22.8434 56.0694 21.7122 56.0694 21.7122C56.0439 21.6991 56.0225 21.6792 56.0079 21.6549C55.9933 21.6306 55.9859 21.6028 55.9866 21.5746C55.9877 21.5335 56.0052 21.4944 56.0354 21.4657C56.0655 21.437 56.106 21.421 56.1482 21.421H59.6261C60.7086 21.453 61.3121 22.3978 61.2834 24.0114C61.2334 26.8042 59.8721 29.6834 57.375 29.7818V29.781Z" fill="#00E559"/>
<path d="M19.5261 27.2638V27.2742L18.6445 31.007C18.597 31.2182 18.3805 31.3726 18.1312 31.3726H17.0659C17.0275 31.3728 16.9902 31.385 16.9595 31.4075C16.9287 31.43 16.9063 31.4615 16.8953 31.4974C15.9129 34.7486 14.5827 36.983 12.8262 38.3246C11.332 39.467 9.49012 39.9998 7.02909 39.9998C4.81819 39.9998 3.32731 39.3062 2.06276 37.9366C0.39146 36.127 -0.299038 33.1638 0.119197 29.5942C0.87366 22.8926 4.43686 16.1302 11.2976 16.1302C13.3846 16.1126 15.0231 16.7406 16.163 17.9942C17.3685 19.3206 17.9803 21.3174 17.9836 23.9318C17.9806 24.0464 17.9319 24.1554 17.8478 24.2355C17.7637 24.3156 17.6509 24.3605 17.5334 24.3606H12.5063C12.4182 24.358 12.3345 24.3225 12.2725 24.2615C12.2104 24.2005 12.1746 24.1186 12.1726 24.0326C12.1316 22.2246 11.5821 21.3446 10.4898 21.3446C8.56262 21.3446 7.42601 23.8966 6.82326 25.311C5.98105 27.287 5.55215 29.4334 5.63662 31.571C5.6768 32.5662 5.84082 33.9654 6.80932 34.5454C7.66793 35.059 8.89311 34.7182 9.63527 34.1494C10.3766 33.5798 10.9736 32.595 11.2246 31.6966C11.2598 31.5718 11.2623 31.475 11.2287 31.4318C11.1934 31.387 11.0958 31.3766 11.0212 31.3766H9.7304C9.66208 31.3769 9.59453 31.3625 9.53249 31.3346C9.47045 31.3067 9.4154 31.2659 9.37121 31.215C9.3373 31.1754 9.31322 31.1286 9.30085 31.0784C9.28847 31.0281 9.28814 30.9758 9.29986 30.9254L10.1823 27.1862C10.2257 26.995 10.4037 26.8502 10.6226 26.8246V26.815H19.0939C19.1136 26.815 19.1341 26.815 19.153 26.819C19.3728 26.847 19.5278 27.0462 19.5237 27.2638H19.5261Z" fill="#00E559"/>
</g>
<defs>
<clipPath id="clip0_2501_1094">
<rect width="67" height="24" fill="white" transform="translate(0 16)"/>
</clipPath>
</defs>
</svg>
