<svg width="76" height="56" viewBox="0 0 76 56" fill="none" xmlns="http://www.w3.org/2000/svg">
<g clip-path="url(#clip0_2501_1208)">
<g clip-path="url(#clip1_2501_1208)">
<path d="M22.1983 22.3224H19.209L17.5782 30.7077H20.2318C21.9925 30.7077 23.3035 30.3752 24.1648 29.7134C25.0262 29.0484 25.6057 27.9432 25.9065 26.3915C26.1978 24.9032 26.0648 23.8519 25.5138 23.2407C24.9597 22.6295 23.8577 22.3224 22.1983 22.3224ZM38 8.01221C17.0145 8.01221 0 16.9612 0 28.0002C0 39.0392 17.0145 47.9914 38 47.9914C58.9855 47.9914 76 39.0392 76 28.0002C76 16.9612 58.9855 8.01221 38 8.01221ZM27.6767 31.607C26.8502 32.3987 25.8558 32.994 24.7728 33.3519C23.7088 33.6939 22.3503 33.8712 20.7037 33.8712H16.9638L15.9283 39.1944H11.5647L15.4597 19.162H23.8513C26.3752 19.162 28.215 19.8239 29.374 21.1507C30.533 22.4744 30.8813 24.3237 30.419 26.6987C30.2419 27.6385 29.9159 28.5439 29.4532 29.3809C29.0003 30.1884 28.4082 30.9325 27.6767 31.607ZM40.4193 33.8712L42.1388 25.0077C42.3383 24.0007 42.2623 23.3104 41.9235 22.9462C41.5847 22.5789 40.8595 22.3952 39.748 22.3952H36.29L34.0607 33.8744H29.7287L33.6237 13.8389H37.9525L36.917 19.1652H40.774C43.2028 19.1652 44.8748 19.5895 45.7963 20.435C46.7178 21.2805 46.9933 22.6517 46.6292 24.5485L44.8178 33.8712H40.4193ZM64.4765 26.6987C64.3023 27.6393 63.9761 28.5452 63.5107 29.3809C63.0578 30.1884 62.4657 30.9325 61.7342 31.607C60.9072 32.3963 59.9154 32.9922 58.8303 33.3519C57.7663 33.6939 56.4078 33.8712 54.758 33.8712H51.0213L49.9858 39.1975H45.6222L49.5172 19.1652H57.9057C60.4295 19.1652 62.2693 19.827 63.4283 21.1539C64.5873 22.4744 64.9388 24.3237 64.4765 26.6987ZM56.259 22.3224H53.2728L51.6388 30.7077H54.2925C56.0563 30.7077 57.3673 30.3752 58.2255 29.7134C59.0868 29.0484 59.6663 27.9432 59.9703 26.3915C60.2617 24.9032 60.1255 23.8519 59.5745 23.2407C59.0235 22.6295 57.9152 22.3224 56.259 22.3224Z" fill="white"/>
</g>
</g>
<defs>
<clipPath id="clip0_2501_1208">
<rect width="76" height="56" fill="white"/>
</clipPath>
<clipPath id="clip1_2501_1208">
<rect width="76" height="76" fill="white" transform="translate(0 -10)"/>
</clipPath>
</defs>
</svg>
