<svg width="174" height="56" viewBox="0 0 174 56" fill="none" xmlns="http://www.w3.org/2000/svg">
<g clip-path="url(#clip0_2501_1080)">
<path d="M1.73543 18.2515C1.05953 18.555 0.456693 19.1799 0.200945 19.8406C0.0730709 20.1798 0 23.358 0 29.1787V37.999H4.20157V32.464H9.7915L11.2529 35.2315L12.6961 37.999H15.1257C16.4409 37.999 17.537 37.9455 17.537 37.8919C17.537 37.8205 16.788 36.3564 15.8564 34.6423L14.194 31.4998L14.6324 31.232C17.0986 29.6429 18.1946 26.5183 17.537 22.9473C17.1169 20.769 16.0391 19.2335 14.3767 18.5193C13.445 18.1087 13.2806 18.0908 7.85512 18.0551C3.47087 18.0194 2.17386 18.0551 1.73543 18.2515ZM12.3307 22.2867C12.623 22.3938 12.9153 22.7152 13.0797 23.1259C13.4268 23.9294 13.4633 25.9827 13.1528 26.5897C12.3672 28.0717 11.3991 28.3574 7.27055 28.3574H4.20157V22.1082H8.01953C10.1203 22.1082 12.0567 22.1796 12.3307 22.2867ZM23.748 18.1622C21.9395 18.6979 20.6425 19.9656 20.0945 21.6975C19.6561 23.0902 19.1811 26.3755 19.1811 27.9646C19.1811 29.5001 19.6195 32.6247 20.0032 33.8924C20.6791 36.0885 21.8299 37.2134 23.949 37.7491C24.8624 37.9812 25.8306 38.0169 28.9361 37.9633C32.4983 37.9097 32.8636 37.8562 33.7587 37.4812C36.3345 36.3564 37.4488 33.4996 37.4488 28.0003C37.4306 22.2153 36.2797 19.3585 33.5578 18.3765C32.5896 18.0372 32.1694 18.0015 28.3515 18.0194C26.068 18.0194 24.0038 18.0908 23.748 18.1622ZM32.2425 22.5188C33.4665 24.1615 33.4482 32.2497 32.206 33.446C31.8406 33.821 24.8076 33.8388 24.497 33.4817C23.6384 32.464 23.3279 26.5897 23.9855 23.8401C24.2595 22.7509 24.4057 22.4117 24.7162 22.2867C24.9354 22.1974 26.6709 22.1439 28.5524 22.1617C31.6397 22.1974 32.0233 22.2331 32.2425 22.5188ZM41.3946 18.3943C40.9928 18.6264 40.4995 19.0907 40.2986 19.4299C39.9332 20.037 39.915 20.3584 39.8602 27.5003C39.8236 32.4819 39.8784 35.1779 40.0063 35.6779C40.3169 36.7849 41.1206 37.5884 42.2167 37.8026C43.3493 38.0526 51.4054 38.0526 52.8485 37.8205C55.6617 37.3741 57.1049 35.7672 57.3058 32.8211C57.4337 31.1606 57.1597 29.9286 56.4472 28.8216L55.9175 28.0181L56.5934 26.7326C57.251 25.5006 57.2693 25.3756 57.2693 23.6437C57.2693 22.1617 57.178 21.6796 56.8491 20.9476C56.3194 19.8227 55.68 19.1621 54.5291 18.5729L53.6157 18.0908L47.8614 18.0372C42.1619 18.0015 42.1071 18.0015 41.3946 18.3943ZM52.7024 22.3224C52.9581 22.5724 53.1225 23.7687 52.9581 24.3222C52.8668 24.6436 52.5745 25.0899 52.3187 25.3399C51.862 25.7684 51.789 25.7684 48.0258 25.822L44.2079 25.8755V22.0903L48.3912 22.1439C50.6929 22.1796 52.6293 22.251 52.7024 22.3224ZM51.8986 30.2857C52.6293 30.5714 53.0312 31.3391 53.0129 32.3569C52.9946 32.9996 52.9033 33.321 52.6841 33.4817C52.4466 33.6603 51.2957 33.7138 48.2816 33.7138H44.2079V29.9286L47.8249 30C49.7978 30.0536 51.6428 30.1786 51.8986 30.2857ZM63.4255 18.3765C61.6535 19.055 60.7584 20.2691 60.0643 22.9473C59.7172 24.3043 59.6624 25.0185 59.6624 28.0003C59.6624 31.2499 59.6989 31.607 60.1556 33.2675C60.7219 35.2851 61.2517 36.16 62.3112 36.9277C63.6265 37.8383 64.0284 37.9097 68.6866 37.9097C73.3449 37.9097 73.7468 37.8383 75.062 36.9277C76.1216 36.16 76.6513 35.2851 77.2176 33.2675C77.6743 31.607 77.7109 31.2499 77.7109 28.0003C77.7109 25.0185 77.6561 24.3043 77.309 22.9473C76.6148 20.2334 75.7197 19.0371 73.8929 18.3765C72.9613 18.0372 72.5046 18.0015 68.6318 18.0194C64.8139 18.0194 64.3024 18.0551 63.4255 18.3765ZM72.2306 22.2867C72.7238 22.4653 72.943 23.0188 73.2901 25.0364C73.7285 27.5182 73.3449 32.1962 72.6142 33.2853C72.3402 33.7138 72.3219 33.7138 68.6866 33.7138C64.412 33.7138 64.6677 33.8388 64.1928 31.4641C63.5169 28.1788 64.0649 22.6974 65.0879 22.2867C65.6359 22.0724 71.646 22.0724 72.2306 22.2867Z" fill="#276EB8"/>
<path d="M81.1268 18.5548L80.5605 19.1083V36.7846L81.0903 37.3024C81.5653 37.7488 81.7662 37.8202 82.6979 37.8202C83.593 37.8202 83.8487 37.7488 84.1776 37.4096C84.8169 36.7489 84.9448 35.9812 84.9448 32.8744V29.9641H87.6302L88.982 31.1068C91.6856 33.3744 92.6172 34.5885 92.6172 35.8026C92.6172 36.4811 92.7086 36.6954 93.2383 37.2132C93.7864 37.7488 93.9691 37.8202 94.7911 37.8202C95.5583 37.8202 95.8141 37.731 96.3073 37.3024C96.8919 36.8025 96.9102 36.7311 96.8919 35.4277C96.8736 34.3028 96.7823 33.8921 96.3073 32.9458C95.6679 31.696 93.8046 29.4641 92.6355 28.5535L91.8683 27.9643L93.0557 26.9109C94.4805 25.6253 95.7958 23.9648 96.4169 22.6614C96.764 21.9115 96.8736 21.3759 96.8919 20.376C96.9102 19.0904 96.8919 19.019 96.3073 18.5191C95.7776 18.0548 95.5766 18.0013 94.5536 18.0013C93.4941 18.0013 93.3297 18.0548 93.0009 18.4655C92.7451 18.7869 92.6172 19.1976 92.6172 19.7332C92.6172 20.1617 92.5076 20.7688 92.3615 21.0902C92.0509 21.8401 90.6626 23.322 88.982 24.7326L87.6302 25.8574H84.9448V22.9471C84.9448 21.358 84.8535 19.7511 84.7621 19.394C84.4881 18.4298 83.8305 18.0013 82.6431 18.0013C81.821 18.0013 81.6018 18.0727 81.1268 18.5548ZM104.382 18.2512C101.916 19.019 100.564 20.7331 99.6138 24.2326C99.1753 25.8039 99.1388 26.3395 99.0657 30.8747C98.9561 36.2311 99.0292 36.8204 99.8695 37.4631C100.472 37.9274 102.025 37.9452 102.591 37.4988C103.249 36.981 103.395 36.4811 103.395 34.6242V32.8209H112.894V34.8027C112.894 36.7489 112.894 36.7846 113.424 37.3024C113.899 37.7488 114.1 37.8202 114.995 37.8202C115.927 37.8202 116.091 37.7667 116.584 37.2489L117.114 36.6775L117.059 30.9639C116.986 25.6789 116.95 25.1254 116.584 23.9291C115.708 21.108 114.429 19.3404 112.712 18.5548C111.762 18.1263 111.506 18.0905 108.419 18.0548C106.081 18.0191 104.911 18.0727 104.382 18.2512ZM110.684 22.3043C111.689 22.6436 112.547 24.804 112.785 27.5001L112.876 28.7142H103.34L103.468 27.2858C103.687 24.7683 104.692 22.4114 105.624 22.2329C106.519 22.0722 110.136 22.1258 110.684 22.3043ZM122.85 18.2512C121.06 18.8047 120.055 19.6618 119.434 21.2152C119.124 22.0008 119.032 22.5721 119.032 23.9827C119.032 26.8395 119.909 28.4643 121.973 29.4463C122.796 29.8391 123.124 29.8748 126.723 29.9641C130.45 30.0533 130.614 30.0712 131.016 30.464C131.546 30.9818 131.601 32.4995 131.107 33.2315L130.797 33.7136H125.883C121.243 33.7136 120.95 33.7315 120.512 34.0707C119.489 34.8563 119.453 36.5704 120.421 37.3739L120.969 37.8202H126.285C129.244 37.8202 131.911 37.731 132.276 37.6417C133.281 37.3739 134.359 36.3383 135.035 34.9992C135.601 33.8743 135.638 33.7136 135.638 31.8388C135.638 30.0891 135.583 29.7677 135.163 28.8928C134.56 27.6429 133.738 26.7145 132.843 26.286C132.258 26.0003 131.582 25.9289 128.002 25.8574C123.161 25.7503 123.307 25.8217 123.307 23.9827C123.307 22.1258 123.033 22.215 128.86 22.1079L133.902 22.0186L134.396 21.5365C134.834 21.108 134.889 20.8938 134.962 19.5368L135.053 18.0013L129.317 18.0191C125.225 18.0191 123.38 18.0905 122.85 18.2512ZM140.935 18.2512C140.533 18.3762 139.967 18.6083 139.657 18.7512C137.3 19.9653 136.314 24.0362 137.665 26.9287C138.232 28.1429 138.853 28.7856 140.022 29.3927C140.899 29.8569 141.045 29.8748 144.589 29.9284C146.598 29.9462 148.462 30.0712 148.736 30.1605C149.375 30.4104 149.686 31.321 149.521 32.3923C149.32 33.7493 149.466 33.7136 143.931 33.7136H138.981L138.451 34.2314C137.994 34.6956 137.921 34.892 137.921 35.7669C137.921 36.6418 137.994 36.8382 138.451 37.3024L138.981 37.8202H144.498C150.636 37.8202 150.782 37.8024 152.06 36.6061C153.175 35.5527 153.686 34.3028 153.778 32.2495C153.887 29.8748 153.43 28.4821 152.079 27.1787C151.476 26.5895 150.873 26.1788 150.416 26.0538C150.014 25.9467 148.188 25.8574 146.306 25.8574C144.424 25.8574 142.653 25.8039 142.342 25.7503C141.684 25.6253 141.392 25.0718 141.392 23.9827C141.392 22.8935 141.684 22.34 142.342 22.215C142.653 22.1615 144.863 22.1079 147.274 22.1079C152.956 22.1079 153.083 22.0365 153.083 19.3404V18.0013L147.384 18.0191C143.31 18.0191 141.447 18.0905 140.935 18.2512ZM160.957 18.3584C160.427 18.5369 159.696 18.9119 159.349 19.1797C157.888 20.2688 156.573 23.1256 156.207 26.036C155.933 28.0714 155.951 35.999 156.207 36.7311C156.463 37.4274 157.194 37.8202 158.271 37.8202C158.929 37.8202 159.221 37.7131 159.696 37.3024L160.299 36.7846L160.354 34.8027L160.427 32.8209H169.67L169.744 34.8027L169.798 36.7846L170.401 37.3024C170.876 37.731 171.15 37.8202 171.899 37.8202C172.648 37.8202 172.922 37.731 173.397 37.3024L174 36.7846L173.982 31.1782C173.963 26.0538 173.945 25.4825 173.58 24.1969C172.758 21.2509 171.534 19.4654 169.762 18.6083C168.721 18.1084 168.629 18.0905 165.323 18.0548C162.345 18.0013 161.834 18.037 160.957 18.3584ZM168.264 22.8221C168.995 23.6613 169.543 25.4468 169.652 27.2323L169.762 28.7142H160.39V27.6251C160.39 25.3575 161.413 22.715 162.436 22.2865C162.674 22.1972 163.953 22.1436 165.304 22.1615L167.734 22.1972L168.264 22.8221Z" fill="#D61E2F"/>
</g>
<defs>
<clipPath id="clip0_2501_1080">
<rect width="174" height="20" fill="white" transform="translate(0 18)"/>
</clipPath>
</defs>
</svg>
