<svg width="20" height="21" viewBox="0 0 20 21" fill="none" xmlns="http://www.w3.org/2000/svg">
<path d="M15.7747 17.1667C14.3702 17.1667 12.9302 16.815 11.4547 16.1117C9.97912 15.4078 8.60579 14.4203 7.33467 13.1492C6.07356 11.8775 5.09134 10.5067 4.38801 9.03668C3.68467 7.56668 3.33301 6.12945 3.33301 4.72501C3.33301 4.47501 3.41634 4.2639 3.58301 4.09168C3.74967 3.91945 3.95801 3.83334 4.20801 3.83334H6.26884C6.49551 3.83334 6.69329 3.90473 6.86217 4.04751C7.03106 4.19029 7.14523 4.37307 7.20467 4.59584L7.61801 6.58334C7.6569 6.81668 7.64995 7.02029 7.59717 7.19418C7.54495 7.36807 7.45273 7.51057 7.32051 7.62168L5.49134 9.32668C5.83356 9.94779 6.21162 10.5245 6.62551 11.0567C7.0394 11.5895 7.48106 12.0942 7.95051 12.5708C8.43384 13.0542 8.9544 13.5042 9.51217 13.9208C10.07 14.337 10.6822 14.7297 11.3488 15.0992L13.1313 13.285C13.2669 13.1389 13.4194 13.0425 13.5888 12.9958C13.7583 12.9497 13.9455 12.9406 14.1505 12.9683L15.9038 13.3267C16.13 13.3822 16.3136 13.4961 16.4547 13.6683C16.5958 13.8411 16.6663 14.0392 16.6663 14.2625V16.2917C16.6663 16.5417 16.5802 16.75 16.408 16.9167C16.2358 17.0833 16.0247 17.1667 15.7747 17.1667Z" fill="white"/>
</svg>
