<svg width="200" height="201" viewBox="0 0 200 201" fill="none" xmlns="http://www.w3.org/2000/svg">
<circle cx="100" cy="100.5" r="100" fill="url(#paint0_radial_2109_10788)" fill-opacity="0.12"/>
<g filter="url(#filter0_b_2109_10788)">
<path d="M97.3101 83.3547C97.3101 91.0065 91.1071 97.2095 83.4553 97.2095C75.8036 97.2095 69.6006 91.0065 69.6006 83.3547C69.6006 75.703 75.8036 69.5 83.4553 69.5C91.1071 69.5 97.3101 75.703 97.3101 83.3547Z" fill="url(#paint1_linear_2109_10788)" fill-opacity="0.3"/>
</g>
<g filter="url(#filter1_b_2109_10788)">
<path d="M90.3831 115.22C90.3831 119.046 87.2816 122.148 83.4557 122.148C79.6298 122.148 76.5283 119.046 76.5283 115.22C76.5283 111.394 79.6298 108.293 83.4557 108.293C87.2816 108.293 90.3831 111.394 90.3831 115.22Z" fill="url(#paint2_linear_2109_10788)" fill-opacity="0.3"/>
</g>
<g filter="url(#filter2_b_2109_10788)">
<path d="M124.604 84.671C124.604 90.6011 119.796 95.4085 113.866 95.4085C107.936 95.4085 103.129 90.6011 103.129 84.671C103.129 78.7409 107.936 73.9336 113.866 73.9336C119.796 73.9336 124.604 78.7409 124.604 84.671Z" fill="url(#paint3_linear_2109_10788)" fill-opacity="0.3"/>
</g>
<g filter="url(#filter3_b_2109_10788)">
<path d="M130.146 115.221C130.146 124.212 122.857 131.5 113.866 131.5C104.875 131.5 97.5869 124.212 97.5869 115.221C97.5869 106.23 104.875 98.9414 113.866 98.9414C122.857 98.9414 130.146 106.23 130.146 115.221Z" fill="url(#paint4_linear_2109_10788)"/>
</g>
<defs>
<filter id="filter0_b_2109_10788" x="45.8506" y="45.75" width="75.21" height="75.2095" filterUnits="userSpaceOnUse" color-interpolation-filters="sRGB">
<feFlood flood-opacity="0" result="BackgroundImageFix"/>
<feGaussianBlur in="BackgroundImageFix" stdDeviation="11.875"/>
<feComposite in2="SourceAlpha" operator="in" result="effect1_backgroundBlur_2109_10788"/>
<feBlend mode="normal" in="SourceGraphic" in2="effect1_backgroundBlur_2109_10788" result="shape"/>
</filter>
<filter id="filter1_b_2109_10788" x="52.7783" y="84.543" width="61.3545" height="61.355" filterUnits="userSpaceOnUse" color-interpolation-filters="sRGB">
<feFlood flood-opacity="0" result="BackgroundImageFix"/>
<feGaussianBlur in="BackgroundImageFix" stdDeviation="11.875"/>
<feComposite in2="SourceAlpha" operator="in" result="effect1_backgroundBlur_2109_10788"/>
<feBlend mode="normal" in="SourceGraphic" in2="effect1_backgroundBlur_2109_10788" result="shape"/>
</filter>
<filter id="filter2_b_2109_10788" x="79.3789" y="50.1836" width="68.9746" height="68.9751" filterUnits="userSpaceOnUse" color-interpolation-filters="sRGB">
<feFlood flood-opacity="0" result="BackgroundImageFix"/>
<feGaussianBlur in="BackgroundImageFix" stdDeviation="11.875"/>
<feComposite in2="SourceAlpha" operator="in" result="effect1_backgroundBlur_2109_10788"/>
<feBlend mode="normal" in="SourceGraphic" in2="effect1_backgroundBlur_2109_10788" result="shape"/>
</filter>
<filter id="filter3_b_2109_10788" x="73.8369" y="75.1914" width="80.0586" height="80.0586" filterUnits="userSpaceOnUse" color-interpolation-filters="sRGB">
<feFlood flood-opacity="0" result="BackgroundImageFix"/>
<feGaussianBlur in="BackgroundImageFix" stdDeviation="11.875"/>
<feComposite in2="SourceAlpha" operator="in" result="effect1_backgroundBlur_2109_10788"/>
<feBlend mode="normal" in="SourceGraphic" in2="effect1_backgroundBlur_2109_10788" result="shape"/>
</filter>
<radialGradient id="paint0_radial_2109_10788" cx="0" cy="0" r="1" gradientUnits="userSpaceOnUse" gradientTransform="translate(100 100.5) rotate(90) scale(100)">
<stop stop-color="#D9D9D9"/>
<stop offset="1" stop-color="#D9D9D9" stop-opacity="0"/>
</radialGradient>
<linearGradient id="paint1_linear_2109_10788" x1="72.5658" y1="72.0565" x2="102.475" y2="87.5429" gradientUnits="userSpaceOnUse">
<stop stop-color="white" stop-opacity="0.9"/>
<stop offset="0.447036" stop-color="white" stop-opacity="0.955296"/>
<stop offset="1" stop-color="white" stop-opacity="0.9"/>
</linearGradient>
<linearGradient id="paint2_linear_2109_10788" x1="78.0109" y1="109.571" x2="92.9653" y2="117.314" gradientUnits="userSpaceOnUse">
<stop stop-color="white" stop-opacity="0.9"/>
<stop offset="0.447036" stop-color="white" stop-opacity="0.955296"/>
<stop offset="1" stop-color="white" stop-opacity="0.9"/>
</linearGradient>
<linearGradient id="paint3_linear_2109_10788" x1="105.427" y1="75.9149" x2="128.606" y2="87.9168" gradientUnits="userSpaceOnUse">
<stop stop-color="white" stop-opacity="0.9"/>
<stop offset="0.447036" stop-color="white" stop-opacity="0.955296"/>
<stop offset="1" stop-color="white" stop-opacity="0.9"/>
</linearGradient>
<linearGradient id="paint4_linear_2109_10788" x1="101.071" y1="101.945" x2="136.214" y2="120.142" gradientUnits="userSpaceOnUse">
<stop stop-color="white" stop-opacity="0.9"/>
<stop offset="0.447036" stop-color="white" stop-opacity="0.955296"/>
<stop offset="1" stop-color="white" stop-opacity="0.9"/>
</linearGradient>
</defs>
</svg>
