<svg width="200" height="201" viewBox="0 0 200 201" fill="none" xmlns="http://www.w3.org/2000/svg">
<circle cx="100" cy="100.5" r="100" fill="url(#paint0_radial_2109_10821)" fill-opacity="0.12"/>
<path d="M84.1221 94.4512C84.1221 89.2315 88.3535 85 93.5733 85H106.049C111.269 85 115.5 89.2315 115.5 94.4512V106.927C115.5 112.147 111.269 116.378 106.049 116.378H93.5733C88.3535 116.378 84.1221 112.147 84.1221 106.927V94.4512Z" fill="white"/>
<g filter="url(#filter0_b_2109_10821)">
<path d="M69 75.1707C69 72.0389 71.5389 69.5 74.6707 69.5H91.6829C94.8148 69.5 97.3537 72.0389 97.3537 75.1707V92.1829C97.3537 95.3148 94.8148 97.8537 91.6829 97.8537H74.6707C71.5389 97.8537 69 95.3148 69 92.1829V75.1707Z" fill="url(#paint1_linear_2109_10821)" fill-opacity="0.3"/>
</g>
<g filter="url(#filter1_b_2109_10821)">
<path fill-rule="evenodd" clip-rule="evenodd" d="M91.6829 69.689H74.6707C71.6433 69.689 69.189 72.1433 69.189 75.1707V92.1829C69.189 95.2104 71.6433 97.6646 74.6707 97.6646H91.6829C94.7104 97.6646 97.1646 95.2104 97.1646 92.1829V75.1707C97.1646 72.1433 94.7104 69.689 91.6829 69.689ZM74.6707 69.5C71.5389 69.5 69 72.0389 69 75.1707V92.1829C69 95.3148 71.5389 97.8537 74.6707 97.8537H91.6829C94.8148 97.8537 97.3537 95.3148 97.3537 92.1829V75.1707C97.3537 72.0389 94.8148 69.5 91.6829 69.5H74.6707Z" fill="url(#paint2_linear_2109_10821)"/>
<path fill-rule="evenodd" clip-rule="evenodd" d="M91.6829 69.689H74.6707C71.6433 69.689 69.189 72.1433 69.189 75.1707V92.1829C69.189 95.2104 71.6433 97.6646 74.6707 97.6646H91.6829C94.7104 97.6646 97.1646 95.2104 97.1646 92.1829V75.1707C97.1646 72.1433 94.7104 69.689 91.6829 69.689ZM74.6707 69.5C71.5389 69.5 69 72.0389 69 75.1707V92.1829C69 95.3148 71.5389 97.8537 74.6707 97.8537H91.6829C94.8148 97.8537 97.3537 95.3148 97.3537 92.1829V75.1707C97.3537 72.0389 94.8148 69.5 91.6829 69.5H74.6707Z" fill="url(#paint3_radial_2109_10821)"/>
</g>
<g filter="url(#filter2_b_2109_10821)">
<path d="M102.646 75.1707C102.646 72.0389 105.185 69.5 108.317 69.5H125.329C128.461 69.5 131 72.0389 131 75.1707V92.1829C131 95.3148 128.461 97.8537 125.329 97.8537H108.317C105.185 97.8537 102.646 95.3148 102.646 92.1829V75.1707Z" fill="url(#paint4_linear_2109_10821)" fill-opacity="0.3"/>
</g>
<g filter="url(#filter3_b_2109_10821)">
<path fill-rule="evenodd" clip-rule="evenodd" d="M125.329 69.689H108.317C105.29 69.689 102.836 72.1433 102.836 75.1707V92.1829C102.836 95.2104 105.29 97.6646 108.317 97.6646H125.329C128.357 97.6646 130.811 95.2104 130.811 92.1829V75.1707C130.811 72.1433 128.357 69.689 125.329 69.689ZM108.317 69.5C105.185 69.5 102.646 72.0389 102.646 75.1707V92.1829C102.646 95.3148 105.185 97.8537 108.317 97.8537H125.329C128.461 97.8537 131 95.3148 131 92.1829V75.1707C131 72.0389 128.461 69.5 125.329 69.5H108.317Z" fill="url(#paint5_linear_2109_10821)"/>
<path fill-rule="evenodd" clip-rule="evenodd" d="M125.329 69.689H108.317C105.29 69.689 102.836 72.1433 102.836 75.1707V92.1829C102.836 95.2104 105.29 97.6646 108.317 97.6646H125.329C128.357 97.6646 130.811 95.2104 130.811 92.1829V75.1707C130.811 72.1433 128.357 69.689 125.329 69.689ZM108.317 69.5C105.185 69.5 102.646 72.0389 102.646 75.1707V92.1829C102.646 95.3148 105.185 97.8537 108.317 97.8537H125.329C128.461 97.8537 131 95.3148 131 92.1829V75.1707C131 72.0389 128.461 69.5 125.329 69.5H108.317Z" fill="url(#paint6_radial_2109_10821)"/>
</g>
<g filter="url(#filter4_b_2109_10821)">
<path d="M102.646 108.817C102.646 105.685 105.185 103.146 108.317 103.146H125.329C128.461 103.146 131 105.685 131 108.817V125.829C131 128.961 128.461 131.5 125.329 131.5H108.317C105.185 131.5 102.646 128.961 102.646 125.829V108.817Z" fill="url(#paint7_linear_2109_10821)" fill-opacity="0.3"/>
</g>
<g filter="url(#filter5_b_2109_10821)">
<path fill-rule="evenodd" clip-rule="evenodd" d="M125.329 103.336H108.317C105.29 103.336 102.836 105.79 102.836 108.817V125.829C102.836 128.857 105.29 131.311 108.317 131.311H125.329C128.357 131.311 130.811 128.857 130.811 125.829V108.817C130.811 105.79 128.357 103.336 125.329 103.336ZM108.317 103.146C105.185 103.146 102.646 105.685 102.646 108.817V125.829C102.646 128.961 105.185 131.5 108.317 131.5H125.329C128.461 131.5 131 128.961 131 125.829V108.817C131 105.685 128.461 103.146 125.329 103.146H108.317Z" fill="url(#paint8_linear_2109_10821)"/>
<path fill-rule="evenodd" clip-rule="evenodd" d="M125.329 103.336H108.317C105.29 103.336 102.836 105.79 102.836 108.817V125.829C102.836 128.857 105.29 131.311 108.317 131.311H125.329C128.357 131.311 130.811 128.857 130.811 125.829V108.817C130.811 105.79 128.357 103.336 125.329 103.336ZM108.317 103.146C105.185 103.146 102.646 105.685 102.646 108.817V125.829C102.646 128.961 105.185 131.5 108.317 131.5H125.329C128.461 131.5 131 128.961 131 125.829V108.817C131 105.685 128.461 103.146 125.329 103.146H108.317Z" fill="url(#paint9_radial_2109_10821)"/>
</g>
<g filter="url(#filter6_b_2109_10821)">
<path d="M69 108.817C69 105.685 71.5389 103.146 74.6707 103.146H91.6829C94.8148 103.146 97.3537 105.685 97.3537 108.817V125.829C97.3537 128.961 94.8148 131.5 91.6829 131.5H74.6707C71.5389 131.5 69 128.961 69 125.829V108.817Z" fill="url(#paint10_linear_2109_10821)" fill-opacity="0.3"/>
</g>
<g filter="url(#filter7_b_2109_10821)">
<path fill-rule="evenodd" clip-rule="evenodd" d="M91.6829 103.336H74.6707C71.6433 103.336 69.189 105.79 69.189 108.817V125.829C69.189 128.857 71.6433 131.311 74.6707 131.311H91.6829C94.7104 131.311 97.1646 128.857 97.1646 125.829V108.817C97.1646 105.79 94.7104 103.336 91.6829 103.336ZM74.6707 103.146C71.5389 103.146 69 105.685 69 108.817V125.829C69 128.961 71.5389 131.5 74.6707 131.5H91.6829C94.8148 131.5 97.3537 128.961 97.3537 125.829V108.817C97.3537 105.685 94.8148 103.146 91.6829 103.146H74.6707Z" fill="url(#paint11_linear_2109_10821)"/>
<path fill-rule="evenodd" clip-rule="evenodd" d="M91.6829 103.336H74.6707C71.6433 103.336 69.189 105.79 69.189 108.817V125.829C69.189 128.857 71.6433 131.311 74.6707 131.311H91.6829C94.7104 131.311 97.1646 128.857 97.1646 125.829V108.817C97.1646 105.79 94.7104 103.336 91.6829 103.336ZM74.6707 103.146C71.5389 103.146 69 105.685 69 108.817V125.829C69 128.961 71.5389 131.5 74.6707 131.5H91.6829C94.8148 131.5 97.3537 128.961 97.3537 125.829V108.817C97.3537 105.685 94.8148 103.146 91.6829 103.146H74.6707Z" fill="url(#paint12_radial_2109_10821)"/>
</g>
<defs>
<filter id="filter0_b_2109_10821" x="39" y="39.5" width="88.3535" height="88.3535" filterUnits="userSpaceOnUse" color-interpolation-filters="sRGB">
<feFlood flood-opacity="0" result="BackgroundImageFix"/>
<feGaussianBlur in="BackgroundImageFix" stdDeviation="15"/>
<feComposite in2="SourceAlpha" operator="in" result="effect1_backgroundBlur_2109_10821"/>
<feBlend mode="normal" in="SourceGraphic" in2="effect1_backgroundBlur_2109_10821" result="shape"/>
</filter>
<filter id="filter1_b_2109_10821" x="39" y="39.5" width="88.3535" height="88.3535" filterUnits="userSpaceOnUse" color-interpolation-filters="sRGB">
<feFlood flood-opacity="0" result="BackgroundImageFix"/>
<feGaussianBlur in="BackgroundImageFix" stdDeviation="15"/>
<feComposite in2="SourceAlpha" operator="in" result="effect1_backgroundBlur_2109_10821"/>
<feBlend mode="normal" in="SourceGraphic" in2="effect1_backgroundBlur_2109_10821" result="shape"/>
</filter>
<filter id="filter2_b_2109_10821" x="72.6465" y="39.5" width="88.3535" height="88.3535" filterUnits="userSpaceOnUse" color-interpolation-filters="sRGB">
<feFlood flood-opacity="0" result="BackgroundImageFix"/>
<feGaussianBlur in="BackgroundImageFix" stdDeviation="15"/>
<feComposite in2="SourceAlpha" operator="in" result="effect1_backgroundBlur_2109_10821"/>
<feBlend mode="normal" in="SourceGraphic" in2="effect1_backgroundBlur_2109_10821" result="shape"/>
</filter>
<filter id="filter3_b_2109_10821" x="72.6465" y="39.5" width="88.3535" height="88.3535" filterUnits="userSpaceOnUse" color-interpolation-filters="sRGB">
<feFlood flood-opacity="0" result="BackgroundImageFix"/>
<feGaussianBlur in="BackgroundImageFix" stdDeviation="15"/>
<feComposite in2="SourceAlpha" operator="in" result="effect1_backgroundBlur_2109_10821"/>
<feBlend mode="normal" in="SourceGraphic" in2="effect1_backgroundBlur_2109_10821" result="shape"/>
</filter>
<filter id="filter4_b_2109_10821" x="72.6465" y="73.1465" width="88.3535" height="88.3535" filterUnits="userSpaceOnUse" color-interpolation-filters="sRGB">
<feFlood flood-opacity="0" result="BackgroundImageFix"/>
<feGaussianBlur in="BackgroundImageFix" stdDeviation="15"/>
<feComposite in2="SourceAlpha" operator="in" result="effect1_backgroundBlur_2109_10821"/>
<feBlend mode="normal" in="SourceGraphic" in2="effect1_backgroundBlur_2109_10821" result="shape"/>
</filter>
<filter id="filter5_b_2109_10821" x="72.6465" y="73.1465" width="88.3535" height="88.3535" filterUnits="userSpaceOnUse" color-interpolation-filters="sRGB">
<feFlood flood-opacity="0" result="BackgroundImageFix"/>
<feGaussianBlur in="BackgroundImageFix" stdDeviation="15"/>
<feComposite in2="SourceAlpha" operator="in" result="effect1_backgroundBlur_2109_10821"/>
<feBlend mode="normal" in="SourceGraphic" in2="effect1_backgroundBlur_2109_10821" result="shape"/>
</filter>
<filter id="filter6_b_2109_10821" x="39" y="73.1465" width="88.3535" height="88.3535" filterUnits="userSpaceOnUse" color-interpolation-filters="sRGB">
<feFlood flood-opacity="0" result="BackgroundImageFix"/>
<feGaussianBlur in="BackgroundImageFix" stdDeviation="15"/>
<feComposite in2="SourceAlpha" operator="in" result="effect1_backgroundBlur_2109_10821"/>
<feBlend mode="normal" in="SourceGraphic" in2="effect1_backgroundBlur_2109_10821" result="shape"/>
</filter>
<filter id="filter7_b_2109_10821" x="39" y="73.1465" width="88.3535" height="88.3535" filterUnits="userSpaceOnUse" color-interpolation-filters="sRGB">
<feFlood flood-opacity="0" result="BackgroundImageFix"/>
<feGaussianBlur in="BackgroundImageFix" stdDeviation="15"/>
<feComposite in2="SourceAlpha" operator="in" result="effect1_backgroundBlur_2109_10821"/>
<feBlend mode="normal" in="SourceGraphic" in2="effect1_backgroundBlur_2109_10821" result="shape"/>
</filter>
<radialGradient id="paint0_radial_2109_10821" cx="0" cy="0" r="1" gradientUnits="userSpaceOnUse" gradientTransform="translate(100 100.5) rotate(90) scale(100)">
<stop stop-color="#D9D9D9"/>
<stop offset="1" stop-color="#D9D9D9" stop-opacity="0"/>
</radialGradient>
<linearGradient id="paint1_linear_2109_10821" x1="72.0342" y1="72.116" x2="102.638" y2="87.9623" gradientUnits="userSpaceOnUse">
<stop stop-color="white" stop-opacity="0.9"/>
<stop offset="0.447036" stop-color="white" stop-opacity="0.955296"/>
<stop offset="1" stop-color="white" stop-opacity="0.9"/>
</linearGradient>
<linearGradient id="paint2_linear_2109_10821" x1="73.0804" y1="68.4874" x2="99.6572" y2="84.0046" gradientUnits="userSpaceOnUse">
<stop offset="0.188941" stop-color="white" stop-opacity="0.523483"/>
<stop offset="0.526042" stop-color="white"/>
<stop offset="1" stop-color="white" stop-opacity="0.1"/>
</linearGradient>
<radialGradient id="paint3_radial_2109_10821" cx="0" cy="0" r="1" gradientUnits="userSpaceOnUse" gradientTransform="translate(73.2374 96.9254) rotate(-50.9773) scale(22.2669 36.409)">
<stop stop-color="white"/>
<stop offset="1" stop-color="white" stop-opacity="0"/>
</radialGradient>
<linearGradient id="paint4_linear_2109_10821" x1="105.681" y1="72.116" x2="136.285" y2="87.9623" gradientUnits="userSpaceOnUse">
<stop stop-color="white" stop-opacity="0.9"/>
<stop offset="0.447036" stop-color="white" stop-opacity="0.955296"/>
<stop offset="1" stop-color="white" stop-opacity="0.9"/>
</linearGradient>
<linearGradient id="paint5_linear_2109_10821" x1="106.727" y1="68.4874" x2="133.304" y2="84.0046" gradientUnits="userSpaceOnUse">
<stop offset="0.188941" stop-color="white" stop-opacity="0.523483"/>
<stop offset="0.526042" stop-color="white"/>
<stop offset="1" stop-color="white" stop-opacity="0.1"/>
</linearGradient>
<radialGradient id="paint6_radial_2109_10821" cx="0" cy="0" r="1" gradientUnits="userSpaceOnUse" gradientTransform="translate(106.884 96.9254) rotate(-50.9773) scale(22.2669 36.409)">
<stop stop-color="white"/>
<stop offset="1" stop-color="white" stop-opacity="0"/>
</radialGradient>
<linearGradient id="paint7_linear_2109_10821" x1="105.681" y1="105.762" x2="136.285" y2="121.609" gradientUnits="userSpaceOnUse">
<stop stop-color="white" stop-opacity="0.9"/>
<stop offset="0.447036" stop-color="white" stop-opacity="0.955296"/>
<stop offset="1" stop-color="white" stop-opacity="0.9"/>
</linearGradient>
<linearGradient id="paint8_linear_2109_10821" x1="106.727" y1="102.134" x2="133.304" y2="117.651" gradientUnits="userSpaceOnUse">
<stop offset="0.188941" stop-color="white" stop-opacity="0.523483"/>
<stop offset="0.526042" stop-color="white"/>
<stop offset="1" stop-color="white" stop-opacity="0.1"/>
</linearGradient>
<radialGradient id="paint9_radial_2109_10821" cx="0" cy="0" r="1" gradientUnits="userSpaceOnUse" gradientTransform="translate(106.884 130.572) rotate(-50.9773) scale(22.2669 36.409)">
<stop stop-color="white"/>
<stop offset="1" stop-color="white" stop-opacity="0"/>
</radialGradient>
<linearGradient id="paint10_linear_2109_10821" x1="72.0342" y1="105.762" x2="102.638" y2="121.609" gradientUnits="userSpaceOnUse">
<stop stop-color="white" stop-opacity="0.9"/>
<stop offset="0.447036" stop-color="white" stop-opacity="0.955296"/>
<stop offset="1" stop-color="white" stop-opacity="0.9"/>
</linearGradient>
<linearGradient id="paint11_linear_2109_10821" x1="73.0804" y1="102.134" x2="99.6572" y2="117.651" gradientUnits="userSpaceOnUse">
<stop offset="0.188941" stop-color="white" stop-opacity="0.523483"/>
<stop offset="0.526042" stop-color="white"/>
<stop offset="1" stop-color="white" stop-opacity="0.1"/>
</linearGradient>
<radialGradient id="paint12_radial_2109_10821" cx="0" cy="0" r="1" gradientUnits="userSpaceOnUse" gradientTransform="translate(73.2374 130.572) rotate(-50.9773) scale(22.2669 36.409)">
<stop stop-color="white"/>
<stop offset="1" stop-color="white" stop-opacity="0"/>
</radialGradient>
</defs>
</svg>
