<svg width="1152" height="159" viewBox="0 0 1152 159" fill="none" xmlns="http://www.w3.org/2000/svg">
<path fill-rule="evenodd" clip-rule="evenodd" d="M0 127.06H38.0816V85.12L71.1304 127.06H115.084L74.1501 75.5577L110.89 33.6176H68.2785L68.2123 33.697L68.252 33.7411L8.78877e-05 115.916L38.0759 0.175083L38.0816 0.181482V0.0654907H0V127.06ZM133.093 120.853C142.935 126.669 156.188 129.577 172.852 129.577H178.221C195.444 129.577 208.977 126.669 218.819 120.853C226.983 116.156 232.687 109.781 235.93 101.728C238.167 95.8008 239.285 89.2581 239.285 82.1003V79.4162C239.285 72.2584 238.167 65.6598 235.93 59.6204C232.575 51.2324 226.927 44.6898 218.986 39.9925C209.033 34.0649 195.5 31.1012 178.388 31.1012H172.684C156.02 31.1012 142.767 34.0649 132.925 39.9925C124.985 44.8016 119.169 51.3443 115.478 59.6204C112.906 65.548 111.62 72.2025 111.62 79.5839V81.9326C111.62 89.4259 112.906 96.0244 115.478 101.728C119.169 109.893 125.04 116.268 133.093 120.853ZM194.997 95.0179C190.858 100.498 184.595 103.238 176.207 103.238H174.698C165.862 103.238 159.543 100.554 155.741 95.1856C152.721 91.1594 151.211 86.0707 151.211 79.9194C151.211 73.7682 152.721 68.7354 155.741 64.821C159.543 59.6763 165.862 57.104 174.698 57.104H176.207C184.707 57.104 190.97 59.6763 194.997 64.821C198.128 68.8473 199.694 73.8801 199.694 79.9194C199.694 85.9588 198.128 90.9916 194.997 95.0179ZM253.616 33.6176V127.06H339.341C362.269 127.06 373.732 118.337 373.732 100.889V100.218C373.732 93.6199 371.551 88.3075 367.189 84.2812C363.051 80.4786 358.019 78.2418 352.091 77.5708C357.907 76.5642 362.436 74.3274 365.68 70.8604C369.035 67.3933 370.712 62.752 370.712 56.9363V56.0975C370.712 48.8278 367.637 43.2918 361.486 39.4892C355.334 35.5748 346.835 33.6176 335.986 33.6176H253.616ZM331.457 62.1368C331.457 67.7289 327.654 70.5249 320.049 70.5249H291.697V53.5811H320.049C327.654 53.5811 331.457 56.2652 331.457 61.6336V62.1368ZM334.476 98.3731C334.476 104.189 330.114 107.097 321.391 107.097H291.697V88.4752H321.391C330.114 88.4752 334.476 91.439 334.476 97.3665V98.3731ZM448.367 123.369C452.282 121.244 455.916 118.392 459.272 114.814C460.278 118.169 461.956 120.853 464.304 122.866C467.324 125.662 470.903 127.06 475.041 127.06H505.909V99.7152H501.547C499.087 99.7152 497.465 99.2678 496.682 98.3731C495.899 97.3665 495.508 95.633 495.508 93.1725V63.3112C495.508 59.0612 494.949 55.2027 493.83 51.7357C492.824 48.2686 490.755 45.1371 487.623 42.3411C479.347 35.0715 464.472 31.4367 442.999 31.4367H437.63C423.203 31.4367 411.516 33.338 402.569 37.1405C395.858 40.1602 390.993 44.4661 387.973 50.0581C385.96 53.8607 384.954 58.2224 384.954 63.1434V63.3112H423.203C423.203 61.0744 424.098 59.1172 425.887 57.4395C428.46 55.0909 433.269 53.9166 440.315 53.9166H440.818C447.752 53.9166 452.617 54.7554 455.413 56.433C457.314 57.5514 458.265 59.4527 458.265 62.1368V62.3046C458.265 63.9822 457.762 65.2684 456.755 66.1631C455.749 67.0578 453.959 67.617 451.387 67.8407L425.384 69.8538C409.391 71.1959 398.207 74.1597 391.832 78.7451C385.681 82.995 382.605 89.5377 382.605 98.3731V99.0441C382.605 103.182 383.388 107.097 384.954 110.787C386.52 114.366 388.812 117.498 391.832 120.182C398.43 125.998 407.937 128.905 420.351 128.905H423.203C433.045 128.905 441.433 127.06 448.367 123.369ZM453.064 100.722C448.703 104.86 442.607 106.929 434.779 106.929C429.969 106.929 426.391 106.146 424.042 104.58C421.693 102.903 420.519 100.666 420.519 97.8698V97.5343C420.519 94.6264 421.861 92.4455 424.545 90.9916C427.006 89.5377 431.983 88.1956 439.476 86.9654C448.088 85.5115 454.351 84.2812 458.265 83.2747V89.1463C458.265 91.0475 457.818 93.0607 456.923 95.1856C456.14 97.1988 454.854 99.0441 453.064 100.722ZM565.536 59.956H597.914V127.06H635.995V33.6176H529.803C529.803 50.3936 529.691 64.15 529.468 74.8866C529.356 81.0378 528.797 86.4062 527.79 90.9916C526.895 94.7942 525.497 97.4224 523.596 98.8764C521.695 100.33 519.122 101.057 515.879 101.057H513.866V127.06H527.119C538.415 127.06 546.915 124.767 552.618 120.182C554.855 118.392 556.589 116.435 557.819 114.31C559.049 112.185 560.28 109.501 561.51 106.258C563.076 102.12 564.138 96.4718 564.697 89.314C565.256 82.0444 565.536 72.2584 565.536 59.956ZM696.531 33.6176H658.449V127.06H727.734C743.168 127.06 754.576 123.985 761.957 117.833C768.668 112.241 772.023 104.189 772.023 93.6758V91.6627C772.023 81.8207 768.668 74.0478 761.957 68.344C754.464 62.0809 743.056 58.9494 727.734 58.9494H696.531V33.6176ZM728.573 100.889C726.336 102.232 723.372 102.903 719.682 102.903H696.531V82.9391H719.682C723.26 82.9391 726.224 83.5543 728.573 84.7845C731.369 86.4621 732.767 89.0344 732.767 92.5015V93.0048C732.767 96.8073 731.369 99.4356 728.573 100.889ZM893.66 127.06V33.6176H855.578V68.8473C850.322 69.6301 844.674 70.0216 838.634 70.0216C834.272 70.0216 830.694 69.7979 827.898 69.3505C825.102 68.7913 822.921 67.8407 821.355 66.4986C819.565 65.1565 818.279 63.2552 817.496 60.7948C816.714 58.2224 816.322 54.9231 816.322 50.8969V33.6176H778.24V55.4264C778.24 63.2552 779.135 69.7979 780.925 75.0544C782.714 80.3109 785.622 84.5608 789.648 87.8042C793.563 91.0475 798.763 93.4521 805.25 95.0179C811.848 96.4718 820.069 97.1988 829.911 97.1988C837.404 97.1988 845.96 96.6396 855.578 95.5212V127.06H893.66ZM940.404 133.603H919.267V158.935H954.329C962.493 158.935 969.091 157.033 974.124 153.231C979.157 149.54 983.351 143.668 986.706 135.616L1028.65 33.6176H990.062L967.414 97.5343L943.424 33.6176H901.484L941.914 122.027C942.585 123.146 943.368 124.823 944.263 127.06C944.599 128.29 944.766 129.353 944.766 130.248C944.766 132.484 943.312 133.603 940.404 133.603ZM1075 84.9522L1108.05 127.06H1152L1110.9 75.5577L1147.81 33.6176H1105.19L1075 69.8538V33.6176H1036.92V127.06H1075V84.9522Z" fill="white"/>
</svg>
