<svg width="56" height="56" viewBox="0 0 56 56" fill="none" xmlns="http://www.w3.org/2000/svg">
<g clip-path="url(#clip0_2501_1127)">
<g clip-path="url(#clip1_2501_1127)">
<path d="M11.8555 0H14.3711V2.49375H16.6898V0H19.2055V7.54688H16.6898V5.03125H14.393V7.54688H11.8555M22.5305 2.51562H20.3102V0H27.2773V2.51562H25.0461V7.54688H22.5305M28.382 0H31.018L32.6367 2.65781L34.2555 0H36.8914V7.54688H34.3758V3.80625L32.6148 6.51875L30.8539 3.80625V7.54688H28.382M38.1383 0H40.6539V5.05312H44.2195V7.54688H38.1383" fill="white"/>
<path d="M11.7695 51.5154L8.16016 11.0029H47.8414L44.232 51.4936L27.968 55.9998" fill="#E44D26"/>
<path d="M28 52.5547V14.3281H44.2203L41.125 48.8906" fill="#F16529"/>
<path d="M15.5312 19.2827H28V24.2483H20.9781L21.4375 29.3343H28V34.289H16.8875M17.1062 36.7827H22.0938L22.4437 40.753L28 42.2405V47.4249L17.8063 44.5812" fill="#EBEBEB"/>
<path d="M40.4254 19.2827H27.9785V24.2483H39.966M39.5176 29.3343H27.9785V34.2999H34.1035L33.5238 40.753L27.9785 42.2405V47.403L38.1504 44.5812" fill="white"/>
</g>
</g>
<defs>
<clipPath id="clip0_2501_1127">
<rect width="56" height="56" fill="white"/>
</clipPath>
<clipPath id="clip1_2501_1127">
<rect width="56" height="56" fill="white"/>
</clipPath>
</defs>
</svg>
