<svg width="48" height="56" viewBox="0 0 48 56" fill="none" xmlns="http://www.w3.org/2000/svg">
<g clip-path="url(#clip0_2501_1194)">
<path d="M48 4H0V52H48V4Z" fill="#F7DF1E"/>
<path d="M32.244 41.5003C33.2109 43.079 34.4688 44.2394 36.6935 44.2394C38.5625 44.2394 39.7564 43.3053 39.7564 42.0146C39.7564 40.4679 38.5297 39.9201 36.4726 39.0203L35.345 38.5365C32.0901 37.1498 29.9278 35.4127 29.9278 31.7403C29.9278 28.3575 32.5053 25.7822 36.5335 25.7822C39.4013 25.7822 41.4631 26.7803 42.9488 29.3937L39.4364 31.6489C38.6631 30.2622 37.8288 29.7159 36.5335 29.7159C35.2124 29.7159 34.3751 30.554 34.3751 31.6489C34.3751 33.002 35.2132 33.5498 37.1484 34.3879L38.276 34.871C42.1084 36.5144 44.2722 38.1898 44.2722 41.9567C44.2722 46.0177 41.0821 48.2424 36.7979 48.2424C32.609 48.2424 29.9027 46.2462 28.5785 43.6298L32.244 41.5003ZM16.3103 41.8912C17.0189 43.1483 17.6634 44.2112 19.2131 44.2112C20.6951 44.2112 21.6299 43.6314 21.6299 41.3769V26.0397H26.1404V41.4378C26.1404 46.1083 23.4021 48.234 19.4051 48.234C15.7937 48.234 13.7023 46.3651 12.6387 44.114L16.3103 41.8912Z" fill="black"/>
</g>
<defs>
<clipPath id="clip0_2501_1194">
<rect width="48" height="48" fill="white" transform="translate(0 4)"/>
</clipPath>
</defs>
</svg>
