<svg width="50" height="48" viewBox="0 0 50 48" fill="none" xmlns="http://www.w3.org/2000/svg">
<g clip-path="url(#clip0_2501_1077)">
<path d="M20.1747 47.7233C15.8014 46.8552 11.7205 44.9188 8.51689 42.1914C0.292326 35.1896 -2.24951 24.1903 2.09535 14.4033C3.16233 11.9998 4.89695 9.56071 7.04621 7.44167L8.94103 5.57348L9.07467 16.5079C9.20259 26.9741 9.23142 27.5014 9.74791 28.8203C10.7812 31.4588 11.889 33.1387 13.796 34.9592C18.7221 39.6617 25.9477 40.8353 32.0901 37.9306C37.8636 35.2003 41.5034 29.2637 41.0804 23.2671C40.7963 19.2392 39.3832 16.2855 36.3321 13.3426C34.025 11.1173 31.3106 9.6638 28.3555 9.07111C25.3488 8.4681 25.4931 8.37999 25.4931 10.8194V12.9255L27.1414 13.2166C33.525 14.344 37.7469 20.3527 36.4163 26.4166C35.9914 28.3534 35.0435 30.0636 33.5219 31.639C31.2094 34.0331 27.9561 35.1775 25.1154 35.1722C20.4181 35.1636 16.4959 32.605 14.5949 28.8215C14.5949 28.8215 14.0969 27.74 13.9369 27.0717C12.9957 23.1416 13.5973 14.8684 13.5973 14.8684L13.5244 2.77157L14.2694 2.40229C14.6792 2.19918 15.0722 2.033 15.1427 2.033C15.2133 2.033 15.3028 7.58906 15.3418 14.3798C15.3418 14.3798 14.4371 23.2815 15.5551 26.6928C15.7164 27.185 16.0226 28.0268 16.0226 28.0268C17.0027 29.9407 18.5734 31.6243 20.6143 32.5509C22.1636 33.2543 22.9436 33.5727 25.2356 33.5727C26.7332 33.5727 28.0598 33.1196 29.5863 32.4466C31.3858 31.6533 33.4501 29.55 34.2129 27.6295C36.3146 22.3385 33.3881 16.646 27.7503 15.0587C25.4461 14.4099 25.4931 14.3742 25.4931 16.7758V18.8736L26.5991 19.1572C30.5859 20.1793 31.8024 25.3014 28.6727 27.9334C27.5669 28.8633 26.5705 29.2743 24.8275 29.2743C22.9651 29.2743 21.1773 28.1937 20.2583 26.5364C19.7062 25.5409 19.6596 24.5965 19.6596 24.164C19.6596 20.169 19.5693 12.984 19.5693 12.984L19.4947 0.659151L20.0671 0.522882C20.3819 0.447933 21.6543 0.26248 22.8946 0.110764C27.101 -0.403772 33.3242 0.915754 37.505 3.20867C43.2049 6.33472 47.5177 11.7048 49.3135 17.9118C49.9312 20.0468 50 20.6676 50 24.1022C50 27.5214 49.9296 28.1627 49.325 30.2511C46.8826 38.6871 40.6698 44.7177 31.7864 47.2753C29.9168 47.8136 29.041 47.9163 25.742 47.9837C23.0797 48.0381 21.3542 47.9574 20.1747 47.7233Z" fill="#C60C30"/>
</g>
<defs>
<clipPath id="clip0_2501_1077">
<rect width="50" height="48" fill="white"/>
</clipPath>
</defs>
</svg>
